<?xml version="1.0" standalone="no"?>
<!DOCTYPE svg PUBLIC "-//W3C//DTD SVG 20010904//EN"
 "http://www.w3.org/TR/2001/REC-SVG-20010904/DTD/svg10.dtd">
<svg version="1.0" xmlns="http://www.w3.org/2000/svg"
 width="200.000000pt" height="200.000000pt" viewBox="0 0 200.000000 200.000000"
 preserveAspectRatio="xMidYMid meet">
<metadata>
Created by potrace 1.11, written by Peter Selinger 2001-2013
</metadata>
<g transform="translate(0.000000,200.000000) scale(0.100000,-0.100000)"
fill="#000000" stroke="none">
<path d="M899 1552 c-68 -36 -113 -102 -113 -169 -1 -33 4 -49 17 -57 27 -17
48 3 63 59 13 53 55 100 99 111 65 16 144 -28 165 -92 19 -55 5 -96 -48 -150
-68 -69 -99 -113 -111 -160 -9 -35 -16 -43 -42 -48 -20 -4 -57 -33 -113 -90
-92 -92 -120 -108 -325 -186 -171 -65 -233 -95 -285 -141 -70 -62 -108 -163
-74 -197 17 -17 1719 -17 1736 0 31 31 1 120 -63 183 -56 56 -125 93 -295 156
-205 75 -234 92 -319 179 -42 44 -93 86 -114 95 -33 14 -35 17 -26 42 5 16 39
59 74 97 79 82 98 122 93 193 -9 111 -108 203 -218 203 -33 0 -64 -9 -101 -28z
m144 -581 c14 -5 57 -43 97 -85 85 -88 147 -123 335 -190 163 -59 263 -112
293 -157 l23 -34 -395 -3 c-218 -1 -574 -1 -792 0 l-395 3 23 34 c30 45 129
98 293 157 196 70 231 89 317 176 43 42 88 84 100 92 25 18 65 20 101 7z"/>
</g>
</svg>
